<svg width="928" height="737" viewBox="0 0 928 737" fill="none" xmlns="http://www.w3.org/2000/svg">
<path d="M615.519 477.773C608.668 447.898 612.787 418.872 622.312 390.271C623.154 387.741 624.338 385.319 625.113 382.771C628.729 370.866 635.628 361.635 647.93 355.255C655.433 355.868 660.896 353.187 667.057 351.033C674.017 354.261 680.34 357.226 687.405 360.539C693.438 349.939 699.265 339.702 705.634 329.183C710.564 328.159 712.092 324.581 714.109 321.267C724.062 304.916 734.241 288.703 744.122 272.31C745.358 270.259 745.302 267.43 745.845 264.961C756.065 251.903 766.312 238.866 776.491 225.776C780.392 220.76 784.836 216.558 792.267 215.184C796.576 219.598 797.686 215.991 800.067 213.946C820.118 213.609 839.302 213.418 857.919 220.138C857.616 223.649 859.437 224.548 861.763 224.991C862.728 235.049 857.745 242.667 851.326 249.495C843.635 257.676 835.608 265.54 827.803 273.617C825.377 276.128 823.203 278.882 820.01 282.262C814.089 282.281 811.75 286.135 808.937 289.063C801.547 296.759 794.146 304.448 786.914 312.291C778.518 321.396 770.297 330.663 761.488 340.19C749.823 351.963 738.664 363.401 727.548 374.882C727.253 375.188 727.434 375.955 727.321 377.471C747.697 376.23 767.918 376.981 788.292 381.035C789.609 381.036 790.497 381.256 791.384 381.476C794.233 383.552 797.058 385.662 799.936 387.697C810.791 395.37 812.782 406.228 805.069 416.991C797.985 426.875 788.337 433.74 777.586 439.023C765.887 444.772 753.844 449.831 742.241 455.759C730.654 461.678 719.425 468.3 706.886 475.236C695.92 475.647 686.109 475.436 675.604 475.006C668.265 475.043 661.619 475.297 654.461 475.309C651.355 475.348 648.762 475.63 645.367 475.823C634.883 476.413 625.201 477.093 615.519 477.773Z" fill="#495EF3"/>
<path d="M35.9643 213.262C35.7129 202.311 35.3833 192.202 35.4589 182.095C35.5866 164.982 38.4607 160.548 54.6371 155.468C86.3713 145.502 118.263 136.036 150.088 126.362C151.506 125.931 152.92 125.486 155.152 124.794C154.807 122.34 154.537 119.812 154.089 117.316C145.767 70.982 178.822 22.6627 224.312 14.6948C262.751 7.96217 297.445 31.6503 305.118 69.879C305.697 72.7633 306.181 75.6667 306.928 79.7628C311.658 78.1114 315.833 76.8807 319.831 75.2206C345.351 64.6226 370.895 54.0755 396.28 43.1619C402.291 40.5778 408.912 40.3492 414.724 36.7381C420.457 33.1757 427.114 31.0341 433.486 28.5821C439.858 26.1299 446.34 23.9432 452.846 21.8653C459.355 19.7868 465.925 17.8884 472.52 16.1009C476.528 15.0149 480.595 14.0087 484.702 13.4603C492.75 12.3852 497.298 15.2946 499.096 23.1863C500.207 28.0662 500.683 33.2055 500.624 38.2189C500.223 72.4675 504.117 106.449 506.65 140.517C508.081 159.776 508.922 179.083 510.631 198.314C511.892 212.495 513.603 226.684 516.12 240.688C517.69 249.418 515.125 255.275 507.69 259.203C497.196 264.747 486.837 270.686 475.925 275.277C418.958 299.248 361.835 322.848 304.764 346.57C301.221 348.042 297.652 349.453 294.179 350.859C294.553 368.954 295.004 386.696 295.243 404.441C295.335 411.273 294.9 418.11 294.786 424.946C294.604 435.792 290.231 443.745 279.704 447.846C261.712 454.854 243.755 461.954 225.83 469.134C179.763 487.586 133.751 506.175 87.655 524.552C72.2046 530.712 56.6143 536.533 40.9805 542.213C36.8533 543.712 32.3581 544.625 27.9751 544.899C20.026 545.395 15.1788 541.85 12.4885 534.234C11.6083 531.742 11.0861 529.086 10.708 526.461C9.56458 518.52 8.47041 510.569 7.57273 502.597C7.23204 499.572 5.84619 496.007 10.2399 493.94C14.0227 495.415 13.5232 499.095 13.9877 502.09C15.3071 510.6 16.1111 519.199 17.6721 527.661C19.5326 537.746 23.4509 540.382 33.3629 537.575C42.4851 534.992 51.4227 531.636 60.2397 528.115C109.082 508.608 157.827 488.86 206.679 469.379C227.101 461.236 247.795 453.776 268.196 445.585C287.066 438.009 287.445 437.786 288.41 417.942C289.536 394.79 289.269 371.613 285.945 348.576C284.418 337.992 283.583 327.288 281.592 316.798C278.391 299.93 271.87 296.521 255.725 302.343C254.048 302.947 252.389 303.608 250.753 304.315C188.778 331.11 124.77 352.345 60.9137 374.023C46.8725 378.79 33.3309 385.035 19.584 390.659C14.3416 392.804 10.332 396.556 9.06531 402.04C7.47688 408.915 5.73728 416.036 5.95707 422.991C6.46331 439.008 8.04782 454.994 9.35285 470.98C9.64083 474.509 10.6899 477.969 11.1792 481.49C11.4314 483.304 11.2236 485.183 11.2236 488.623C5.92004 483.516 3.75631 478.551 3.37511 473.425C1.85638 453 -0.00630103 432.536 1.6024e-05 412.087C0.00415513 398.486 6.70815 387.872 20.6792 382.798C31.7954 378.761 42.5182 373.64 54.1955 368.668C53.2068 359.493 52.3396 350.378 51.2237 341.294C48.2899 317.41 45.184 293.547 42.3058 269.656C41.7754 265.251 41.7846 260.748 41.9647 256.308C42.0357 254.55 43.253 252.838 44.9769 251.144C49.5002 260.125 48.086 269.983 49.8398 279.248C51.6615 288.871 52.6912 298.647 53.9596 308.371C55.1893 317.798 56.2564 327.246 57.443 336.679C58.6546 346.311 59.9241 355.936 61.2459 366.165C63.9002 365.533 66.2029 365.208 68.3474 364.44C117.859 346.731 167.444 329.219 216.787 311.051C228.99 306.558 240.336 299.772 252.189 294.284C267.666 287.119 282.347 293.997 286.894 310.534C288.307 315.673 289.207 320.973 290.04 326.248C290.868 331.49 291.317 336.792 292.081 343.342C296.382 341.853 300.196 340.763 303.83 339.242C353.996 318.247 404.152 297.229 454.276 276.133C468.505 270.144 482.887 264.426 496.715 257.604C510.861 250.626 510.102 250.106 508.175 234.932C505.408 213.143 503.156 191.274 501.319 169.386C499.109 143.041 497.345 116.653 495.809 90.2587C494.756 72.1673 494.212 54.0385 493.83 35.9182C493.489 19.7227 491.502 17.6052 476.17 22.1274C457.955 27.4999 440.027 33.8411 421.931 39.6261C417.775 40.9545 413.443 41.7266 409.191 42.7543C408.438 42.9365 407.382 42.8591 406.977 43.3361C400.859 50.5357 391.797 52.3145 383.744 55.7739C365.728 63.513 347.546 70.8718 329.356 78.2001C322.232 81.0704 314.906 83.4427 307.438 86.1262C306.748 91.6285 306.268 97.213 305.321 102.717C299.268 137.909 271.649 167.201 237.842 174.428C205.152 181.416 174.77 166.533 160.184 136.398C159.293 134.558 158.328 132.754 157.109 130.367C142.756 134.608 128.543 138.605 114.461 143.018C95.1819 149.06 75.9929 155.391 56.7886 161.669C53.9747 162.59 50.8749 163.389 48.6582 165.176C46.2889 167.086 43.6686 169.896 43.1715 172.673C42.0303 179.051 41.5092 185.678 41.8222 192.151C42.5108 206.387 43.9269 220.587 44.9152 234.81C45.1291 237.889 44.7935 241.006 44.7039 244.365C38.4047 243.811 38.7835 239.367 38.3175 236.283C37.2083 228.944 36.7749 221.503 35.9643 213.262ZM299.83 80.8097C299.484 78.4629 299.176 76.1098 298.786 73.7706C291.622 30.8627 247.559 6.05561 204.618 28.659C176.066 43.6879 161.173 68.7065 159.772 100.799C158.819 122.638 166.432 141.758 183.881 155.858C204.574 172.58 233.812 174.113 258.218 159.142C286.632 141.712 300.443 115.847 299.83 80.8097Z" fill="#202020"/>
<path d="M654.748 474.89C661.401 474.636 668.053 474.381 675.417 474.714C676.116 476.039 676.104 476.778 675.466 477.822C673.462 478.263 672.084 478.398 670.486 478.189C669.253 478.256 668.24 478.667 666.516 479.403C662.69 479.966 659.573 480.204 656.187 480.052C654.93 480.017 653.942 480.373 652.24 480.921C647.714 481.442 643.894 481.688 640.093 482.116C632.798 482.939 625.515 483.866 618.226 484.75C612.347 485.521 606.467 486.292 599.586 486.672C597.667 486.722 596.749 487.165 595.831 487.608C583.097 491.485 569.953 494.083 558.212 500.923C548.94 506.324 548.446 507.252 552.689 517.727C559.81 535.303 567.164 552.795 573.805 570.551C578.467 583.017 582.227 595.827 586.167 608.552C589.74 620.091 593.012 631.723 596.371 643.159C604.818 644.279 612.367 645.28 621.067 646.433C621.391 637.639 622.147 629.429 621.902 621.248C621.371 603.48 620.676 585.7 619.351 567.978C618.683 559.036 618.244 549.777 612.975 540.895C614.14 539.598 615.375 539.214 616.611 538.83C617.177 538.561 617.744 538.557 618.875 539.47C620.441 540.064 621.445 540.006 622.449 539.948C623.307 540.041 624.164 540.135 625.798 541.169C629.702 545.985 633.86 544.68 637.825 544.344C638.431 544.288 639.037 544.233 640.326 544.863C642.561 545.457 644.113 545.366 645.664 545.275C648.298 545.532 650.932 545.79 654.692 546.827C657.715 547.541 659.611 547.476 661.506 547.411C665.333 547.601 669.158 547.79 674.073 548.62C677.271 548.973 679.38 548.685 681.49 548.397C689.39 547.836 697.29 547.276 706.225 547.207C708.823 547.275 710.385 546.851 711.947 546.427C713.319 546.061 714.69 545.695 717.075 545.725C718.982 545.688 719.876 545.254 720.77 544.821C739.896 539.569 756.445 530.188 769.083 514.598C775.976 506.095 779.551 496.724 776.552 485.626C774.271 477.185 769.656 470.602 761.904 466.32C759.904 465.215 758.035 463.874 756.004 462.576C757.81 457.487 760.969 458.654 763.962 460.037C774.764 465.026 780.835 473.803 783.434 485.121C785.906 495.883 783.487 505.799 777.306 514.764C774.455 518.9 771.067 522.667 767.698 526.882C771.666 548.179 778.367 568.743 787.135 588.615C792.301 600.324 801.146 609.472 811.266 616.798C830.758 630.91 850.921 644.095 870.747 657.75C873.792 659.847 876.538 659.567 879.921 658.53C886.697 656.453 893.588 654.245 900.58 653.515C909.246 652.61 911.979 656.804 908.931 665.036C907.601 668.63 905.77 672.086 903.814 675.397C890.666 697.652 873.547 716.503 853.796 733.04C851.159 735.248 848.538 738.294 844.4 736.412C840.393 734.59 838.702 730.849 838.815 726.962C839.125 716.314 839.419 705.603 840.827 695.064C843.113 677.96 843.606 680.566 829.52 674.032C815.506 667.531 801.769 660.432 787.722 654.007C777.737 649.44 767.521 645.339 757.255 641.432C748.795 638.212 742.077 633.073 738.134 624.983C733.465 615.402 728.801 605.752 725.149 595.762C720.162 582.123 716.133 568.134 711.557 553.871C708.868 553.726 706.586 553.604 703.3 553.007C701.329 552.876 700.364 553.218 699.399 553.56C688.619 553.756 677.839 553.951 665.973 553.448C663.345 552.841 661.803 552.933 660.26 553.025C658.295 552.857 656.331 552.69 653.526 551.826C651.621 551.238 650.557 551.345 649.493 551.453C645.151 550.72 640.809 549.988 635.52 548.381C633.149 547.371 631.724 547.236 630.299 547.1C627.51 546.831 624.721 546.562 621.498 547.209C621.607 549.384 622.15 550.644 622.694 551.903C623.502 555.738 624.309 559.572 624.857 564.906C625.124 569.278 625.65 572.152 626.176 575.026C626.669 584.052 627.162 593.078 627.124 603.385C627.041 607.272 627.49 609.877 627.938 612.482C628.062 620.285 628.185 628.089 627.659 636.986C627.124 639.602 627.238 641.125 627.352 642.649C627.751 646.048 627.327 649.237 629.418 652.727C634.151 660.626 627.867 672.36 618.676 673.998C616.657 674.357 614.535 674.22 612.463 674.179C592.571 673.778 572.677 673.442 552.79 672.878C545.977 672.684 539.164 672.05 532.382 671.326C529.064 670.973 525.221 669.671 525.082 666.017C524.976 663.214 526.488 659.168 528.654 657.703C533.458 654.453 538.894 651.383 544.487 650.208C556.937 647.594 569.642 646.193 582.241 644.285C584.247 643.981 586.243 643.613 588.559 643.221C588.359 641.421 588.391 639.954 588.017 638.598C577.034 598.846 564.119 559.757 547.872 521.81C546.941 519.635 546.188 517.364 545.571 515.079C543.301 506.676 545.707 500.804 553.094 496.18C564.859 488.815 577.964 485.06 591.33 482.088C598.853 480.416 606.457 479.111 614.641 477.376C624.949 476.431 634.64 475.751 645.559 475.611C649.642 477 652.478 477.727 654.748 474.89ZM856.7 670.606C860.013 668.312 863.326 666.019 867.054 663.438C864.52 661.535 862.692 660.036 860.741 658.719C846.472 649.091 832.242 639.405 817.88 629.918C796.361 615.703 780.201 597.537 773.337 572.004C769.819 558.914 765.559 546.024 761.363 532.148C748.07 542.085 733.633 549.307 717.253 551.949C721.948 565.83 726.126 579.099 730.946 592.131C734.431 601.55 738.584 610.74 742.784 619.874C746.573 628.115 753.344 632.807 761.745 636.284C778.451 643.199 794.791 650.999 811.26 658.482C818.557 661.798 825.821 665.19 833.063 668.624C838.378 671.144 843.635 673.788 849.443 676.634C851.167 675.171 853.408 673.269 856.7 670.606Z" fill="#141414"/>
<path d="M761.6 339.429C769.895 330.174 778.114 320.849 786.508 311.686C793.739 303.794 801.138 296.057 808.526 288.313C811.338 285.366 813.677 281.488 819.267 281.975C834.396 281.494 843.497 288.767 846.861 302.724C849.312 312.892 855.928 318.202 865.359 319.419C875.833 320.771 882.474 326.31 887.9 334.864C890.179 338.457 893.961 341.298 897.532 343.797C903.495 347.971 904.909 351.527 902.17 358.075C898.476 366.909 892.594 371.13 882.995 370.697C876.241 370.393 869.345 369.762 862.847 368.017C851.214 364.892 840.062 365.095 828.927 369.754C822.087 372.616 815.225 375.491 808.189 377.792C803.177 379.431 797.861 380.124 791.829 381.272C790.09 381.084 789.203 380.863 787.345 380.447C769.302 372.065 761.457 358.203 761.6 339.429Z" fill="#040404"/>
<path d="M730.222 161.152C734.456 163.863 735.037 167.55 733.105 171.899C732.746 172.708 732.383 173.518 731.954 174.29C721.926 192.34 711.85 210.363 701.881 228.445C699.334 233.063 697.121 237.864 695.314 243.026C695.875 243.471 696.027 243.463 695.359 243.235C694.17 243.766 693.65 244.525 692.639 245.738C690.698 246.445 689.164 247.13 687.808 246.876C681.162 245.63 674.509 244.346 667.96 242.679C656.389 239.734 646.907 245.95 646.049 257.763C645.755 261.802 645.852 266.352 647.434 269.941C650.653 277.245 648.363 282.929 644.07 288.556C643.803 277.421 643.19 266.281 643.37 255.153C643.537 244.856 644.649 234.579 645.172 224.284C645.875 210.464 646.418 196.635 647.009 182.809C647.084 181.054 647.201 179.276 647.019 177.538C645.656 164.51 646.781 162.525 660.302 156.169C662.673 155.485 663.939 155.121 666.065 154.806C686.083 154.285 705.301 152.677 724.341 158.623C726.46 159.761 728.341 160.456 730.222 161.152Z" fill="#495EF1"/>
<path d="M643.702 289.296C648.099 282.958 650.383 277.217 647.172 269.838C645.594 266.213 645.498 261.616 645.79 257.537C646.647 245.604 656.105 239.325 667.646 242.3C674.178 243.983 680.815 245.28 687.445 246.539C688.797 246.796 690.326 246.104 692.899 245.376C694.563 244.299 695.102 243.696 695.642 243.092C695.642 243.092 695.49 243.1 695.488 243.177C697.788 242.957 700.345 243.214 702.349 242.273C712.227 237.629 719.893 241.863 727.065 248.15C732.791 253.169 738.349 258.383 744.556 263.862C744.59 266.693 744.646 269.535 743.415 271.594C733.576 288.059 723.44 304.342 713.529 320.764C711.521 324.092 710 327.686 704.402 328.535C699.04 327.569 694.905 326.498 690.973 325.48C682.628 333.82 674.335 342.108 666.042 350.395C660.543 352.822 655.103 355.515 648.315 354.598C638.316 352.268 632.625 345.425 632.075 335.136C631.497 324.307 633.721 313.897 637.757 303.881C639.638 299.212 641.64 294.592 643.702 289.296ZM677.115 301.442C675.642 292.798 674.169 284.154 672.675 275.393C663.267 275.73 655.726 279.606 651.741 287.906C647.263 297.235 643.479 307.007 640.5 316.925C638.748 322.758 638.421 329.288 638.744 335.435C639.277 345.587 647.484 350.688 656.94 347.107C660.458 345.774 664.031 343.754 666.698 341.135C673.628 334.329 680.07 327.017 685.956 320.71C682.769 313.984 680.13 308.413 677.115 301.442Z" fill="#070708"/>
<path d="M470.117 311.469C436.538 326.101 403.629 340.543 370.665 354.861C356.768 360.897 342.786 366.744 328.775 372.513C325.228 373.973 321.477 375.092 317.713 375.809C315.725 376.187 313.508 375.363 309.889 374.882C311.998 372.564 312.716 371.025 313.812 370.68C342.556 361.637 369.28 347.88 396.541 335.407C432.226 319.079 468.453 304.102 505.41 290.888C509.323 289.489 513.286 288.165 517.316 287.17C522.616 285.862 524.172 286.929 525.515 292.249C525.949 293.969 526.187 295.746 526.422 297.508C527.807 307.857 527.132 309.925 517.593 314.308C488.714 327.577 459.796 340.779 430.658 353.47C396.069 368.535 361.253 383.083 326.486 397.74C322.133 399.575 317.535 400.914 312.941 402.042C311.707 402.345 310.072 401.028 306.531 399.629C310.734 397.412 313.081 395.969 315.585 394.883C380.711 366.619 445.854 338.393 510.993 310.156C511.537 309.92 512.056 309.624 512.585 309.353C520.991 305.053 521.061 304.882 518.297 293.993C501.961 298.46 486.509 305.268 470.117 311.469Z" fill="#232323"/>
<path d="M730.47 159.888C728.158 159.727 726.279 159.031 724.34 157.292C730.437 148.388 736.675 140.587 742.706 132.628C744.654 130.057 746.349 127.202 747.642 124.25C749.874 119.155 747.853 116.004 742.264 116.58C738.616 116.956 734.752 118.394 731.681 120.413C727.521 123.149 724.118 127.006 720.222 130.176C717.156 132.67 714.446 137.364 709.816 135.178C704.634 132.731 706.599 127.443 707.215 123.246C710.188 102.975 710.16 82.5833 709.891 62.1865C709.796 55.0407 708.562 53.7252 701.353 54.3909C689.885 55.4501 678.485 57.2397 667.044 58.6269C662.719 59.1514 661.064 61.7188 660.672 65.7525C659.842 74.2794 658.942 82.8012 657.92 91.3071C655.339 112.789 657.262 133.737 665.1 154.019C663.836 154.384 662.572 154.748 660.911 155.215C658.67 151.693 656.073 148.257 655.112 144.413C651.012 128.011 648.682 111.386 650.697 94.4029C651.949 83.8551 653.131 73.2983 654.245 62.7352C654.895 56.5726 658.087 53.135 664.312 52.3218C676.313 50.7538 688.256 48.6222 700.295 47.4991C712.83 46.3299 717.044 50.2821 716.909 63.136C716.732 79.9595 715.841 96.7758 715.228 113.594C715.11 116.815 714.853 120.032 714.561 124.896C718.446 121.759 721.281 119.498 724.086 117.201C729.194 113.015 734.615 109.609 741.526 109.347C753.411 108.897 759.48 117.427 753.725 127.829C749.181 136.044 743.099 143.42 737.588 151.088C735.523 153.96 733.141 156.604 730.47 159.888Z" fill="#232323"/>
<path d="M861.785 224.222C858.967 224.175 857.156 223.278 857.932 219.319C865.75 211.414 873.035 204.5 880.545 197.842C892.289 187.432 903.673 176.701 912.22 163.372C917.267 155.501 916.939 151.083 908.831 146.379C898.696 140.499 887.829 135.815 877.045 131.156C869.309 127.813 863.006 130.477 857.528 136.901C847.064 149.169 838.687 162.601 832.862 177.644C831.581 180.951 830.601 184.443 828.831 187.466C827.826 189.182 825.5 190.12 823.768 191.408C822.688 189.778 821.097 188.283 820.626 186.492C819.376 181.739 818.609 176.859 817.549 171.516C808.103 174.649 803.358 180.939 801.699 188.989C800.042 197.024 799.879 205.369 799.062 213.578C797.539 215.638 796.435 219.237 792.819 214.76C793.036 207.297 793.713 200.249 794.31 193.194C795.122 183.608 798.838 175.551 806.43 169.443C815.491 162.154 819.9 162.905 826.276 173.751C827.81 170.885 829.246 168.529 830.377 166.033C835.913 153.811 843.622 143.073 852.05 132.708C859.554 123.48 868.619 120.961 879.599 124.572C891.408 128.455 902.815 133.302 912.974 140.597C923.699 148.298 925.175 156.129 918.053 167.186C909.163 180.986 897.457 192.217 885.206 202.958C877.439 209.767 869.919 216.861 861.785 224.222Z" fill="#202020"/>
<path d="M655.845 481.11C658.955 480.874 662.066 480.638 666.323 480.283C668.335 479.849 669.202 479.534 670.068 479.219C671.444 479.085 672.82 478.952 675.569 478.719C683.086 479.732 689.229 480.844 695.372 481.956C683.968 491.139 672.703 500.501 661.114 509.449C651.931 516.539 643.007 516.273 633.513 509.472C625.506 503.737 621.044 495.654 617.793 486.02C624.956 484.501 632.227 483.583 639.509 482.768C643.303 482.343 647.117 482.1 651.953 481.802C653.938 481.589 654.891 481.35 655.845 481.11Z" fill="#495EF1"/>
<path d="M922.332 459.502C917.797 461.547 913.839 464.034 909.677 464.451C902.283 465.191 896.128 460.494 893.9 453.859C891.632 447.103 894.344 439.065 900.325 434.816C906.87 430.166 914.811 430.292 921.033 435.143C926.596 439.481 928.664 446.816 926.025 453.688C925.293 455.594 923.904 457.244 922.332 459.502Z" fill="#5266F4"/>
<path d="M779.614 24.5982C772.994 23.3991 769.185 19.9848 768.345 13.7949C767.454 7.22219 771.422 1.61459 777.682 0.234737C783.367 -1.01872 790.174 2.89134 792.138 8.53907C794.097 14.1693 791.728 20.5207 786.329 23.2369C784.517 24.1485 782.289 24.2211 779.614 24.5982Z" fill="#5266F4"/>
<path d="M696.329 481.387C689.365 480.248 683.18 479.122 676.24 477.79C675.498 476.844 675.51 476.104 675.505 474.993C685.358 474.836 695.228 475.047 705.615 475.028C712.004 475.526 717.899 476.114 723.742 477.03C727.599 477.635 732.199 476.897 735.108 482.902C721.847 484.538 709.484 482.05 696.329 481.387Z" fill="#252526"/>
<path d="M615.901 538.228C615.116 539.027 613.892 539.398 612.221 540.214C595.396 536.012 581.325 527.14 566.705 519.274C567.022 518.37 567.34 517.466 567.658 516.562C569.682 516.828 571.939 516.62 573.691 517.437C585.351 522.881 596.909 528.531 608.484 534.147C610.846 535.293 613.138 536.578 615.901 538.228Z" fill="#252526"/>
<path d="M637.661 544.215C634.036 544.927 629.77 546.104 626.308 542.106C629.776 542.339 633.497 543.072 637.661 544.215Z" fill="#252526"/>
<path d="M628.2 612.117C627.663 610.084 627.297 607.539 627.254 604.548C627.842 606.603 628.107 609.103 628.2 612.117Z" fill="#252526"/>
<path d="M626.308 574.274C625.457 572.037 624.83 569.271 624.416 565.759C625.264 567.923 625.897 570.834 626.308 574.274Z" fill="#252526"/>
<path d="M711.456 546.837C710.355 547.348 708.695 547.727 706.725 547.783C707.909 547.208 709.403 546.956 711.456 546.837Z" fill="#252526"/>
<path d="M661.313 547.288C659.597 547.891 657.439 547.987 654.691 547.331C656.358 546.646 658.614 546.714 661.313 547.288Z" fill="#252526"/>
<path d="M645.23 545.323C644.005 545.959 642.397 546.117 640.499 545.506C641.755 544.772 643.301 544.809 645.23 545.323Z" fill="#252526"/>
<path d="M719.97 544.945C719.365 545.435 718.409 545.784 717.132 545.891C717.747 545.367 718.683 545.086 719.97 544.945Z" fill="#252526"/>
<path d="M621.578 539.68C620.856 540.315 619.895 540.42 618.739 539.799C619.476 539.099 620.408 539.125 621.578 539.68Z" fill="#252526"/>
<path d="M630.092 547.943C631.282 547.612 632.88 547.784 634.823 548.561C633.612 548.926 632.057 548.686 630.092 547.943Z" fill="#252526"/>
<path d="M622.524 551.567C621.741 550.829 621.081 549.575 620.632 547.783C621.444 548.514 622.045 549.783 622.524 551.567Z" fill="#252526"/>
<path d="M649.96 552.254C650.593 551.556 651.613 551.34 652.798 551.84C652.092 552.615 651.219 552.675 649.96 552.254Z" fill="#252526"/>
<path d="M699.157 554.406C699.799 553.819 700.762 553.441 701.995 553.46C701.335 554.11 700.406 554.362 699.157 554.406Z" fill="#252526"/>
<path d="M596.033 488.18C596.644 487.684 597.602 487.333 598.872 487.234C598.25 487.765 597.315 488.044 596.033 488.18Z" fill="#252526"/>
<path d="M799.444 213.475C799.416 205.25 799.579 196.907 801.246 188.875C802.916 180.827 807.69 174.54 817.194 171.407C818.261 176.748 819.032 181.628 820.29 186.379C820.764 188.169 822.365 189.664 823.452 191.293C825.195 190.005 827.536 189.068 828.547 187.352C830.328 184.33 831.314 180.839 832.602 177.533C838.463 162.496 846.892 149.068 857.421 136.804C862.933 130.383 869.275 127.719 877.059 131.061C887.909 135.719 898.843 140.401 909.041 146.279C917.2 150.981 917.53 155.398 912.451 163.266C903.851 176.591 892.397 187.318 880.58 197.725C873.024 204.381 865.694 211.292 857.786 218.545C838.715 212.949 819.514 213.139 799.444 213.475Z" fill="#F9F9F9"/>
<path d="M761.073 339.645C761.444 357.986 769.363 371.771 787.142 380.326C767.562 376.463 747.156 375.711 726.593 376.953C726.707 375.436 726.524 374.668 726.822 374.362C738.04 362.873 749.301 351.426 761.073 339.645Z" fill="#F3F3F3"/>
<path d="M666.99 350.835C674.588 342.214 682.817 333.86 691.097 325.453C694.998 326.479 699.101 327.559 703.887 328.818C698.812 339.363 693.055 349.727 687.095 360.458C680.114 357.104 673.867 354.103 666.99 350.835Z" fill="#F3F3F3"/>
<path d="M653.744 474.935C652.055 477.618 649.329 476.985 646.176 475.853C648.261 475.215 650.757 474.969 653.744 474.935Z" fill="#252526"/>
<path d="M299.892 81.4237C300.466 115.687 286.672 141.579 258.293 159.026C233.916 174.013 204.714 172.479 184.046 155.74C166.619 141.625 159.015 122.484 159.968 100.623C161.367 68.4969 176.242 43.4522 204.758 28.4076C247.647 5.78062 291.656 30.6136 298.811 73.5663C299.201 75.908 299.508 78.2635 299.892 81.4237ZM220.476 64.4819C217.212 67.4942 213.58 70.2033 210.792 73.6073C208.207 76.7644 205.951 80.4547 204.562 84.2796C201.545 92.5814 205.737 97.9415 214.435 97.1464C218.538 96.7714 222.529 95.2903 226.629 94.755C233.064 93.9147 239.552 92.9306 246.008 92.989C251.353 93.0372 257.35 94.3197 259.098 100.309C260.796 106.127 256.667 110.441 252.537 113.937C242.964 122.04 232.057 125.613 219.484 122.953C216.208 122.259 212.815 120.614 209.498 123.015C209.767 128.01 213.516 128.482 216.482 128.751C224.602 129.49 232.774 129.665 241.147 130.074C241.665 131.955 241.956 134.428 243.055 136.463C243.692 137.643 245.627 138.119 246.978 138.911C247.564 137.668 248.76 136.35 248.62 135.194C248.242 132.065 247.296 129.005 246.637 126.185C250.1 123.794 253.229 122.017 255.882 119.694C258.533 117.371 261.128 114.772 263.013 111.823C269.358 101.894 266.14 92.0345 255.048 88.3322C250.375 86.7727 245.132 86.107 240.208 86.3344C234.05 86.619 227.959 88.2754 221.829 89.275C218.2 89.8669 214.55 90.3345 208.774 91.1649C211.208 85.8779 212.259 82.1855 214.369 79.2609C222.025 68.6505 232.718 62.7635 245.435 60.3259C246.9 60.0448 248.31 59.4689 250.423 58.8223C243.966 52.9895 237.844 57.5875 232.091 57.5965C229.48 48.5866 229.48 48.5866 225.705 45.8137C221.755 48.92 223.499 52.8335 224.464 56.4119C225.375 59.7872 224.94 62.2425 220.476 64.4819Z" fill="#F9F9F9"/>
<path d="M855.757 670.829C852.996 673.101 850.76 674.994 849.04 676.451C843.244 673.618 837.999 670.986 832.695 668.478C825.468 665.06 818.22 661.684 810.938 658.384C794.504 650.936 778.2 643.172 761.529 636.291C753.145 632.83 746.389 628.16 742.608 619.958C738.418 610.867 734.273 601.721 730.796 592.345C725.985 579.376 721.817 566.169 717.132 552.353C733.477 549.724 747.883 542.536 761.148 532.646C765.334 546.456 769.585 559.286 773.096 572.314C779.945 597.727 796.071 615.807 817.544 629.954C831.875 639.397 846.076 649.037 860.314 658.62C862.261 659.931 864.085 661.423 866.614 663.316C862.894 665.885 859.588 668.168 855.757 670.829Z" fill="#F8F8F8"/>
<path d="M655.637 480.614C654.969 481.28 654.039 481.534 652.798 481.557C653.45 480.951 654.412 480.577 655.637 480.614Z" fill="#252526"/>
<path d="M669.828 478.719C669.176 479.291 668.303 479.566 666.99 479.665C667.569 479.132 668.588 478.777 669.828 478.719Z" fill="#252526"/>
<path d="M665.692 154.255C656.986 133.822 655.061 112.769 657.645 91.1807C658.668 82.6324 659.569 74.068 660.399 65.4987C660.792 61.4448 662.449 58.8646 666.779 58.3376C678.231 56.9434 689.643 55.1449 701.123 54.0804C708.339 53.4114 709.575 54.7335 709.67 61.9149C709.939 82.4133 709.968 102.907 706.991 123.279C706.374 127.497 704.407 132.811 709.595 135.27C714.23 137.468 716.943 132.75 720.012 130.243C723.912 127.057 727.319 123.181 731.483 120.432C734.557 118.402 738.425 116.958 742.077 116.58C747.672 116 749.695 119.167 747.461 124.288C746.166 127.254 744.469 130.124 742.519 132.708C736.482 140.706 730.238 148.547 723.896 157.05C704.921 152.111 685.706 153.73 665.692 154.255Z" fill="#F9F9F9"/>
<path d="M695.351 243.144C695.499 243.912 694.87 244.467 693.499 245.036C693.363 244.343 693.968 243.638 695.351 243.144Z" fill="white"/>
<path d="M677.262 302.057C680.088 308.327 682.726 313.897 685.911 320.623C680.027 326.929 673.588 334.24 666.66 341.046C663.995 343.665 660.423 345.685 656.907 347.017C647.454 350.598 639.25 345.498 638.718 335.347C638.395 329.2 638.722 322.671 640.473 316.839C643.451 306.922 647.233 297.151 651.71 287.823C655.693 279.524 663.231 275.648 672.636 275.311C674.129 284.071 675.602 292.714 677.262 302.057ZM643.073 330.334C648.358 338.666 655.397 339.49 661.263 332.128C663.216 329.677 664.536 326.544 665.521 323.517C666.794 319.605 664.819 317.017 660.882 316.788C655.464 316.473 650.015 316.709 644.114 316.709C643.58 321.428 643.153 325.198 643.073 330.334Z" fill="#F3F3F3"/>
<path d="M220.784 64.5751C224.689 62.7196 225.124 60.2743 224.216 56.9129C223.253 53.3492 221.515 49.4517 225.452 46.3582C229.215 49.1196 229.215 49.1196 231.817 58.0927C237.551 58.0836 243.653 53.5045 250.089 59.3134C247.983 59.9573 246.578 60.531 245.117 60.8108C232.443 63.2385 221.784 69.1014 214.154 79.6682C212.05 82.5809 211.002 86.2581 208.577 91.5235C214.333 90.6965 217.971 90.2308 221.589 89.6413C227.699 88.6458 233.77 86.9962 239.907 86.7127C244.815 86.4863 250.042 87.1493 254.699 88.7024C265.755 92.3895 268.963 102.208 262.638 112.097C260.76 115.034 258.173 117.622 255.531 119.935C252.887 122.249 249.767 124.019 246.316 126.4C246.972 129.208 247.915 132.256 248.292 135.372C248.432 136.523 247.24 137.836 246.655 139.074C245.309 138.285 243.38 137.811 242.745 136.636C241.65 134.609 241.36 132.147 240.844 130.273C232.498 129.866 224.353 129.692 216.259 128.956C213.303 128.687 209.567 128.218 209.298 123.243C212.604 120.852 215.986 122.491 219.252 123.181C231.783 125.83 242.655 122.272 252.196 114.202C256.313 110.72 260.428 106.424 258.736 100.63C256.994 94.6653 251.017 93.3881 245.689 93.3401C239.254 93.282 232.787 94.262 226.373 95.0988C222.287 95.632 218.308 97.107 214.219 97.4804C205.549 98.2723 201.372 92.9341 204.378 84.6663C205.763 80.8572 208.012 77.182 210.588 74.0378C213.367 70.6478 216.987 67.9498 220.784 64.5751Z" fill="#252526"/>
<path d="M642.392 329.583C642.652 325.26 643.091 321.602 643.641 317.021C649.707 317.021 655.309 316.792 660.879 317.098C664.927 317.32 666.957 319.832 665.648 323.629C664.636 326.568 663.279 329.608 661.271 331.987C655.241 339.132 648.004 338.333 642.392 329.583ZM657.962 324.229C655.478 323.38 652.993 322.53 648.795 321.094C649.512 325.443 649.913 327.877 650.657 332.395C654.141 329.014 655.938 327.27 657.962 324.229Z" fill="#202020"/>
<path d="M657.529 324.84C655.732 327.443 654.042 329.342 650.765 333.022C650.065 328.104 649.688 325.455 649.014 320.723C652.962 322.285 655.299 323.21 657.529 324.84Z" fill="#F3F3F3"/>
</svg>
