<svg width="756" height="541" viewBox="0 0 756 541" fill="none" xmlns="http://www.w3.org/2000/svg">
<path d="M551.888 490.462C551.152 489.09 550.772 487.133 549.625 486.434C536.544 478.473 522.417 473.712 507.007 472.992C494.777 472.421 482.526 472.022 470.339 470.936C464.462 470.413 458.536 468.993 452.937 467.087C439.419 462.486 430.176 453.827 425.467 439.706C417.951 417.165 416.711 394.247 419.097 370.97C420.181 360.394 422.189 349.905 424.024 339.419C424.722 335.427 425.785 331.431 427.238 327.649C434.649 308.359 447.207 294.519 468.168 289.703C472.123 288.795 475.983 287.472 480.952 285.635C483.297 284.951 484.577 284.972 485.858 284.994C497.778 284.731 509.696 284.316 521.618 284.236C544.208 284.086 566.805 283.825 589.39 284.171C613.651 284.543 634.744 294.546 653.206 309.097C676.139 327.173 694.234 349.859 706.489 376.407C716.515 398.127 718.974 421.616 717.685 445.395C717.434 450.025 716.028 454.634 714.821 459.164C710.723 474.551 700.691 484.577 685.253 487.526C664.63 491.466 643.772 494.263 622.945 497.027C612.072 498.47 601.018 498.502 590.104 499.703C579.294 500.892 569.586 498.497 560.489 492.745C558.148 491.265 555.421 490.393 552.438 489.718C552.005 490.194 551.888 490.462 551.888 490.462ZM494.324 425.659C487.922 431.275 484.216 438.497 482.666 446.682C481.549 452.582 481.047 458.83 486.844 463.008C492.591 467.15 498.834 468.327 505.433 464.831C507.037 463.981 508.638 463.128 508.817 463.033C514.212 465.595 518.143 468.647 522.381 469.157C527.076 469.722 532.051 467.963 536.868 467.222C546.214 480.686 558.098 482.629 571.422 472.922C571.928 472.553 572.477 472.194 572.862 471.715C575.607 468.291 578.88 468.163 582.954 469.245C595.096 472.467 606.674 470.172 617.609 464.477C634.613 455.621 645.893 441.654 651.957 423.75C660.955 397.182 663.783 369.875 659.009 342.126C657.804 335.123 655.346 328.123 652.25 321.705C646.901 310.616 637.887 307.41 626.34 311.841C616.257 315.711 608.756 322.731 603.939 332.359C600.855 338.523 598.497 345.048 595.42 351.215C589.685 362.707 584.569 374.65 577.556 385.332C565.632 403.495 549.555 415.467 526.237 415.011C515.084 414.793 504.405 417.587 494.324 425.659Z" fill="#495EF1"/>
<path d="M62.751 277C53.9059 276.161 46.6711 273.525 40.4901 268.201C24.8938 254.767 23.6159 234.85 38.2818 220.329C43.7489 214.916 50.3751 209.833 57.4395 207.013C83.7497 196.512 106.315 180.4 128.449 163.22C138.799 155.186 150.264 148.47 161.684 141.961C170.364 137.013 180.542 136.46 190.156 137.352C219.647 140.088 248.54 145.816 275.652 158.373C286.289 163.299 295.656 169.974 303.549 178.796C319.419 196.536 313.647 220.827 298.477 233.11C290.453 239.607 281.05 242.887 271.218 245.302C253.375 249.685 235.115 249.612 216.941 250.252C206.591 250.616 196.218 250.389 185.856 250.33C166.739 250.222 148.524 254.237 130.912 261.591C114.679 268.37 98.2527 274.705 80.4911 276.269C74.875 276.764 69.2187 276.804 62.751 277ZM91.3153 217.635C90.6982 216.551 90.1024 214.558 89.4605 214.543C86.7671 214.481 84.06 215.01 81.3606 215.323C79.5997 211.726 78.0785 208.618 75.8452 204.056C74.749 206.879 73.7747 208.094 74.0018 209.013C75.4663 214.941 75.9354 220.315 71.0022 225.325C68.8239 227.538 70.1937 230.761 73.1946 232.288C75.0577 233.236 77.1401 233.754 79.3308 234.539C80.0273 238.782 80.6598 242.634 81.4471 247.43C76.433 246.951 72.613 246.586 68.4066 246.184C67.7744 252.299 72.0196 252.514 75.4283 253.105C79.584 253.826 83.2885 254.707 84.7717 259.397C84.9903 260.088 86.7473 260.294 88.5154 261.022C89.1555 257.772 89.6687 255.166 90.1408 252.769C94.2676 250.261 98.6436 248.305 102.14 245.322C108.294 240.073 107.766 233.217 100.906 229.01C98.1416 227.315 94.4856 226.961 91.175 226.294C88.6034 225.776 85.9383 225.72 83.1664 225.444C83.259 219.646 87.5621 219.961 91.3153 217.635ZM109.921 203.891C110.339 205.398 110.757 206.905 111.51 209.621C115.335 204.829 117.703 199.796 124.539 201.161C125.799 209.771 115.112 214.521 117.3 223.85C121.349 222.647 124.789 221.09 128.346 220.752C130.788 220.52 135.331 221.636 135.532 222.757C135.999 225.36 135.275 229.322 133.445 230.927C130.529 233.482 126.33 234.592 122.652 236.265C120.298 237.336 116.732 236.921 116.871 241.01C127.849 245.143 142.849 235.834 143.07 224.831C143.167 219.974 140.85 216.567 136.021 214.935C133.522 214.091 130.891 213.636 128.026 212.934C129.15 210.194 130.599 208.196 130.652 206.162C130.728 203.262 130.553 199.841 129.079 197.543C127.107 194.469 123.076 193.476 119.805 195.252C116.376 197.113 113.573 200.124 109.921 203.891ZM142.371 205.623C142.05 214.832 142.719 215.538 151.369 215.317C153.781 215.255 156.196 215.308 158.084 215.308C162.11 219.683 158.485 227.442 167.276 230.055C166.597 223.623 166.035 218.313 165.531 213.542C168.077 210.423 174.124 211.786 172.935 205.501C169.825 205.501 166.831 205.501 164.14 205.501C160.684 202.939 162.984 197.098 157.296 195.356C157.296 199.839 157.296 203.668 157.296 208.068C154.274 208.499 151.676 208.87 148.794 209.281C147.036 201.442 152.641 194.38 148.687 187.074C144.84 192.17 144.093 198.272 142.371 205.623ZM254.804 185.245C254.804 184.004 254.804 182.763 254.804 181.522C254.134 181.28 253.464 181.039 252.793 180.797C248.091 187.562 243.264 194.303 239.557 201.688C237.597 205.593 240.233 208.207 244.055 209.332C247.54 210.358 251.09 211.166 254.948 212.157C254.24 216.201 253.424 219.24 253.292 222.308C253.224 223.856 254.395 225.458 255.006 227.035C256.435 225.782 258.742 224.761 259.147 223.237C261.387 214.789 263.316 206.248 264.993 197.669C265.402 195.579 264.466 193.226 264.086 190.551C255.596 193.192 259.967 202.045 254.254 205.747C251.766 204.908 248.994 203.973 245.722 202.87C248.847 196.908 251.576 191.699 254.804 185.245ZM194.051 224.494C195.998 223.528 197.946 222.562 199.894 221.595C199.743 220.848 199.591 220.101 199.44 219.353C195.126 218.963 190.812 218.574 185.818 218.123C187.414 214.654 188.899 212.24 189.655 209.617C191.291 203.938 192.982 198.215 193.835 192.39C194.501 187.838 192.539 183.747 188.459 181.112C182.102 177.007 175.808 180.39 175.34 188.108C175.899 187.966 176.689 188.012 176.98 187.653C179.177 184.942 182.203 182.949 184.957 185.513C186.904 187.326 188.415 191.168 187.939 193.696C186.856 199.453 184.589 205.02 182.483 210.542C181.49 213.145 179.523 215.365 178.42 217.94C176.781 221.762 178.03 224.131 182.094 224.596C185.499 224.986 188.985 224.658 194.051 224.494ZM211.025 218.605C211.213 221.184 211.372 223.788 216.475 223.067C218 207.947 219.517 192.609 217.064 177.137C216.908 176.152 215.16 175.419 213.314 173.861C212.506 189.076 211.764 203.047 211.025 218.605ZM231.877 210.042C231.871 209.018 231.865 207.993 231.858 206.969C231.06 207.161 230.261 207.352 229.462 207.544C229.97 208.471 230.478 209.398 231.877 210.042Z" fill="#495EF1"/>
<path d="M486.531 284.499C484.271 284.95 482.992 284.928 481.593 285C476.496 283.457 470.804 282.837 466.705 279.952C460.087 275.292 453.793 274.76 446.296 276.708C441.604 277.928 436.349 278.409 431.594 277.658C421.85 276.12 416.608 270.017 416.484 260.211C416.414 254.658 417.612 249.013 418.838 243.544C419.861 238.976 421.9 234.648 423.234 230.138C426.935 217.624 425.072 205.914 417.778 195.094C415.847 192.231 414.014 189.269 411.796 186.639C402.513 175.634 405.75 161.412 411.965 153.507C415.637 148.837 420.071 144.773 424.025 140.315C428.184 135.627 432.468 131.008 436.187 125.98C444.194 115.153 447.282 103.073 445.279 89.5412C443.285 76.0708 443.729 62.6154 447.659 49.4218C453.819 28.7406 476.437 9.79294 497.792 7.48324C504.525 6.75482 510.944 7.96249 517.011 10.8803C522.099 13.3276 527.25 15.7077 532.087 18.5974C538.567 22.4685 544.518 21.6732 550.617 17.8608C558.064 13.205 565.296 7.98459 573.259 4.44386C579.377 1.72316 586.503 -0.0999172 593.144 0.00424262C608.356 0.243061 619.216 7.90402 624.742 22.4725C630.146 36.7217 632.479 51.5415 633.222 66.6897C633.576 73.8997 634.296 81.0917 634.658 88.3015C635.395 102.985 642.687 112.266 656.922 116.177C662.66 117.754 668.429 119.394 673.912 121.663C677.6 123.191 681.275 125.387 684.147 128.133C692.031 135.67 692.039 146.822 683.632 153.772C677.9 158.511 670.948 161.771 664.554 165.713C660.297 168.337 655.619 170.491 651.915 173.751C645.477 179.417 645.406 185.721 651.618 191.625C656.378 196.149 661.812 199.967 666.992 204.042C673.695 209.316 679.039 215.311 677.415 224.7C675.682 234.719 669.612 241.229 659.909 243.514C650.171 245.807 640.248 247.551 630.31 248.69C618.821 250.007 610.566 254.893 604.81 265.32C596.449 280.467 578.161 284.382 566.454 274.118C563.445 271.479 561.248 267.91 559.074 265.252C550.476 270.055 542.295 275.893 533.209 279.357C523.366 283.108 513.407 280.433 504.924 274.699C498.914 277.92 493.214 280.974 486.531 284.499ZM476.663 159.323C491.339 157.279 505.173 153.071 514.299 140.461C526.253 123.943 537.874 107.131 542.511 86.6964C543.234 83.512 544.412 80.431 545.508 76.8848C550.681 80.9603 550.586 80.9858 552.02 86.3791C554.518 95.7756 556.616 105.326 559.863 114.463C563.524 124.767 567.382 135.109 575.148 143.387C581.037 149.666 586.444 156.556 597.949 150.114C597.474 154.399 597.523 157.091 596.846 159.585C588.29 191.102 578.991 222.369 565.288 252.136C564.413 254.037 563.348 256.49 563.844 258.277C566.818 268.986 575.455 276.087 587.361 272.307C593.357 270.403 597.48 266.221 600.292 260.646C605.348 250.62 613.724 245.175 624.585 243.302C627.671 242.77 630.837 242.684 633.91 242.099C642.822 240.403 651.922 239.26 660.545 236.595C671.462 233.222 675.858 218.332 664.866 210.483C660.016 207.02 655.315 203.326 650.732 199.514C636.451 187.632 637.386 174.482 653.226 164.598C656.944 162.278 660.963 160.445 664.805 158.319C668.648 156.194 672.642 154.265 676.223 151.756C686.404 144.622 685.803 134.9 674.741 128.963C670.914 126.909 666.62 125.686 662.476 124.269C658.621 122.951 654.636 122.012 650.789 120.676C637.572 116.085 630.294 106.681 628.899 92.8267C628.019 84.0852 627.307 75.3194 626.814 66.5479C625.982 51.7264 623.821 37.1999 618.203 23.3515C613.725 12.3145 605.271 6.75643 593.635 5.7924C585.199 5.09367 577.504 7.30404 570.468 12.0218C564.475 16.0407 558.499 20.104 552.319 23.8198C545.061 28.1833 537.56 28.5217 529.94 24.3763C524.707 21.5294 519.551 18.2417 513.945 16.4656C508.429 14.7182 502.129 13.128 496.625 14.081C476.508 17.5643 455.322 35.0117 451.7 58.1055C449.917 69.4711 450.024 80.6661 451.526 91.8611C453.348 105.441 449.741 117.453 442.105 128.328C437.978 134.205 432.999 139.497 428.247 144.914C424.939 148.685 421.075 151.99 417.966 155.907C410.371 165.477 410.258 173.42 417.106 183.319C418.357 185.126 419.582 186.955 420.91 188.704C432.123 203.47 433.911 219.486 427.696 236.778C425.691 242.357 423.981 248.138 423.008 253.972C420.74 267.569 428.006 274.381 441.464 271.772C442.695 271.534 443.936 271.28 445.121 270.88C454.091 267.846 462.054 269.114 469.969 274.774C480.357 282.202 491.156 279.451 498.349 269.126C494.743 260.655 490.522 252.83 488.065 244.486C484.171 231.26 481.15 217.75 478.334 204.241C475.774 191.959 473.973 179.519 471.849 167.146C471.294 163.918 470.881 160.726 476.663 159.323ZM531.75 273.73C547.594 268.634 557.098 257.353 563.298 242.357C573.509 217.661 581.643 192.288 588.937 166.62C589.575 164.375 589.62 161.961 589.985 159.301C581.849 158.6 576.873 153.969 572.018 148.905C560.972 137.383 556.306 122.696 551.384 108.118C550.039 104.134 548.89 100.084 547.776 96.4693C540.356 109.469 533.254 122.329 525.75 134.95C516.64 150.272 503.635 160.398 485.752 163.602C483.331 164.036 480.95 164.689 478.443 165.265C478.443 167.823 478.066 170.043 478.5 172.091C483.578 196.022 488.529 219.985 494.121 243.797C495.527 249.784 498.624 255.535 501.76 260.918C508.094 271.79 517.605 276.591 531.75 273.73Z" fill="#252526"/>
<path d="M551.997 490.279C552.243 494.546 552.763 498.739 552.959 502.947C553.232 508.833 552.276 510.134 546.177 510.686C535.846 511.623 525.481 512.211 515.124 512.842C495.349 514.047 475.575 515.978 455.791 516.097C439.226 516.198 422.652 514.089 406.074 513.092C401.706 512.829 397.21 512.466 392.939 513.162C365.436 517.645 337.748 516.278 310.079 516.492C277.378 516.745 244.681 517.78 211.99 518.722C199.431 519.084 186.874 519.922 174.351 520.958C169.95 521.321 167.709 519.317 166.527 515.843C164.513 509.923 162.554 503.94 161.221 497.843C155.467 471.518 150.351 445.048 144.169 418.826C141.231 406.364 136.5 394.316 132.449 382.124C126.621 364.586 120.503 347.14 114.861 329.543C112.771 323.022 110.956 316.06 118.138 310.407C126.904 315.884 136.362 312.768 145.575 312.532C153.414 312.331 161.225 311.165 169.065 310.84C183.516 310.239 197.977 309.756 212.439 309.559C240.105 309.183 267.777 309.169 295.443 308.77C325.95 308.329 356.453 307.635 386.958 307.029C396.038 306.848 395.752 307.247 396.67 316.315C398.782 337.196 401.781 357.986 404.072 378.851C405.438 391.3 405.905 403.845 407.206 416.303C409.093 434.369 411.314 452.402 413.499 470.437C414.548 479.099 415.841 487.731 417.088 496.854C434.307 495.599 451.188 494.086 468.103 493.205C493.228 491.896 518.374 490.988 543.517 490.059C545.933 489.97 548.388 490.937 551.417 490.946C552.01 490.48 552.127 490.211 551.997 490.279ZM152.208 422.798C157.127 446.419 162.023 470.044 166.978 493.656C168.438 500.617 169.338 507.787 173.198 513.765C186.582 513.24 199.416 512.64 212.257 512.255C243.051 511.332 273.87 509.367 304.637 509.959C337.722 510.596 370.622 509.69 403.485 506.191C405.842 505.94 408.151 505.245 410.374 504.778C410.374 503.037 410.475 502.095 410.359 501.181C407.932 481.914 405.165 462.683 403.111 443.377C400.229 416.288 398.054 389.124 395.224 362.028C393.542 345.923 391.181 329.888 389.027 313.049C299.345 316.193 209.557 313.498 119.093 320.136C120.56 325.224 121.782 330.035 123.329 334.74C132.813 363.603 142.371 392.441 152.208 422.798ZM437.863 501.311C431.114 501.773 424.366 502.235 417.685 502.692C417.05 506.349 417.192 508.602 420.865 508.715C432.777 509.079 444.703 510.01 456.596 509.693C473.227 509.25 489.834 507.906 506.448 506.895C519.565 506.097 532.677 505.22 546.443 504.336C546.147 501.225 545.93 498.951 545.701 496.54C542.49 496.54 540.004 496.438 537.528 496.555C504.902 498.094 472.278 499.663 437.863 501.311Z" fill="#232323"/>
<path d="M5.15585 474.96C-0.445091 467.149 -1.69768 459.475 2.46116 451.266C7.53688 441.248 19.7434 437.14 29.6544 442.112C39.4913 447.048 43.7527 459.41 39.1379 469.623C34.3946 480.12 22.6753 484.88 12.5485 480.197C10.0522 479.043 7.91963 477.077 5.15585 474.96Z" fill="#5266F4"/>
<path d="M741.707 541C729.706 541.032 722.734 536.675 720.584 528.383C718.284 519.515 722.953 510.434 731.497 507.154C739.592 504.046 749 507.399 753.509 514.997C758.028 522.613 756.312 531.811 749.059 537.46C747.141 538.954 744.672 539.76 741.707 541Z" fill="#5266F4"/>
<path d="M282 61.8766C281.086 67.734 278.977 72.1478 274.254 74.9136C266.717 79.3261 256.454 76.4836 252.055 68.8007C247.66 61.1276 250.554 51.2239 258.453 46.903C266.25 42.6377 276.189 45.7769 280.123 53.9763C281.178 56.1732 281.411 58.7576 282 61.8766Z" fill="#5266F4"/>
<path d="M494.866 425.262C504.399 417.619 515.058 414.825 526.19 415.043C549.464 415.499 565.51 403.533 577.412 385.378C584.411 374.701 589.517 362.764 595.241 351.277C598.313 345.113 600.666 338.59 603.744 332.429C608.552 322.806 616.039 315.789 626.102 311.921C637.627 307.492 646.624 310.696 651.964 321.781C655.054 328.195 657.507 335.193 658.709 342.192C663.474 369.928 660.652 397.223 651.671 423.779C645.618 441.674 634.359 455.635 617.388 464.487C606.474 470.178 594.918 472.473 582.799 469.252C578.733 468.171 575.466 468.299 572.726 471.721C572.342 472.2 571.794 472.559 571.289 472.927C557.99 482.63 546.129 480.688 536.801 467.23C531.993 467.971 527.027 469.729 522.341 469.164C518.112 468.654 514.188 465.604 508.803 463.043C508.625 463.138 507.026 463.991 505.425 464.84C498.839 468.335 492.608 467.159 486.872 463.018C481.086 458.842 481.587 452.597 482.702 446.699C484.249 438.519 487.948 431.3 494.866 425.262ZM654.169 359.307C653.831 347.626 652.177 336.191 647.063 325.55C642.666 316.4 636.213 314.18 626.99 318.361C618.656 322.139 612.601 328.36 608.688 336.511C605.575 342.995 602.996 349.733 600.123 356.334C591.055 377.168 580.739 397.128 561.755 411.029C560.954 411.614 560.621 412.837 560.009 413.866C580.853 421.079 584.374 428.887 581.65 462.11C585.052 462.792 588.572 464.016 592.123 464.116C604.958 464.478 615.93 459.538 625.568 451.367C637.23 441.482 644.027 428.6 647.957 414.102C652.654 396.772 654.877 379.114 654.169 359.307ZM519.095 445.664C518.556 449.327 517.755 452.975 517.543 456.656C517.27 461.388 519.875 464.243 524.371 463.146C528.051 462.248 531.622 459.873 534.57 457.364C536.575 455.657 537.462 452.611 538.774 450.124C539.919 447.952 540.763 444.794 543.932 446.377C545.028 446.925 545.247 450.04 545.162 451.951C545.038 454.737 543.995 457.479 543.841 460.268C543.355 469.052 549.913 474.47 558.364 472.208C564.97 470.441 570.233 466.81 573.515 460.514C578.018 451.876 577.75 443.051 575.046 434.055C572.603 425.926 566.818 421.183 558.672 420.644C543.35 419.629 527.875 419.292 512.863 423.055C500.02 426.275 491.598 434.596 488.87 448.002C488.009 452.236 487.898 456.194 492.078 458.842C495.966 461.304 501.482 460.793 505.031 457.092C507.82 454.183 509.966 450.649 512.333 447.346C513.808 445.288 515.033 442.861 519.095 445.664Z" fill="#0B0E24"/>
<path d="M90.4098 218.006C87.1771 219.914 82.8832 219.599 82.7908 225.401C85.5568 225.677 88.2161 225.733 90.7822 226.251C94.0857 226.919 97.7338 227.273 100.493 228.969C107.337 233.178 107.864 240.038 101.724 245.291C98.2347 248.276 93.8681 250.233 89.7502 252.742C89.2792 255.14 88.767 257.748 88.1283 261C86.3641 260.271 84.6108 260.065 84.3928 259.374C82.9127 254.681 79.2162 253.799 75.0695 253.078C71.6681 252.486 67.4321 252.272 68.063 246.153C72.2603 246.555 76.072 246.92 81.0753 247.4C80.2897 242.601 79.6586 238.747 78.9636 234.501C76.7776 233.716 74.6997 233.197 72.8406 232.248C69.8462 230.721 68.4793 227.496 70.6529 225.282C75.5755 220.269 75.1074 214.891 73.6461 208.96C73.4195 208.04 74.3917 206.825 75.4855 204C77.714 208.565 79.2319 211.674 80.989 215.273C83.6826 214.961 86.3839 214.431 89.0714 214.494C89.7119 214.508 90.3064 216.503 90.4098 218.006ZM98.9124 239.725C98.2529 232.062 95.8164 230.83 84.667 233.051C85.5367 237.108 86.4032 241.149 87.5575 246.532C91.7262 244.276 94.8558 242.582 98.9124 239.725Z" fill="#0B0E24"/>
<path d="M110 202.956C113.378 199.795 116.192 196.76 119.635 194.885C122.921 193.096 126.968 194.097 128.948 197.194C130.429 199.51 130.604 202.956 130.528 205.878C130.475 207.928 129.019 209.941 127.891 212.702C130.768 213.41 133.41 213.867 135.919 214.718C140.768 216.363 143.095 219.796 142.997 224.689C142.775 235.776 127.713 245.156 116.69 240.992C116.55 236.872 120.131 237.289 122.494 236.21C126.188 234.525 130.404 233.407 133.332 230.831C135.17 229.215 135.897 225.223 135.428 222.6C135.226 221.47 130.664 220.346 128.212 220.58C124.641 220.92 121.186 222.489 117.12 223.701C114.923 214.301 125.654 209.515 124.39 200.839C117.525 199.464 115.147 204.535 111.306 209.363C110.55 206.627 110.13 205.108 110 202.956Z" fill="#0B0E24"/>
<path d="M142.108 204.802C143.71 198.204 144.464 192.098 148.35 187C152.345 194.31 146.682 201.375 148.458 209.217C151.37 208.806 153.994 208.435 157.047 208.004C157.047 203.602 157.047 199.771 157.047 195.286C162.793 197.029 160.47 202.873 163.96 205.436C166.679 205.436 169.704 205.436 172.845 205.436C174.046 211.723 167.937 210.36 165.366 213.48C165.875 218.253 166.442 223.565 167.129 230C158.248 227.386 161.91 219.624 157.844 215.247C155.936 215.247 153.497 215.194 151.06 215.256C142.322 215.477 141.646 214.771 142.108 204.802Z" fill="#0B0E24"/>
<path d="M254.542 185.154C251.586 191.082 248.877 196.377 245.777 202.437C249.024 203.558 251.774 204.508 254.243 205.361C259.912 201.597 255.575 192.599 263.999 189.915C264.377 192.634 265.305 195.025 264.899 197.15C263.235 205.87 261.321 214.552 259.098 223.139C258.697 224.688 256.407 225.726 254.989 227C254.383 225.396 253.222 223.768 253.288 222.194C253.42 219.076 254.23 215.987 254.932 211.876C251.104 210.869 247.581 210.047 244.123 209.005C240.33 207.861 237.715 205.204 239.66 201.235C243.338 193.728 248.128 186.877 252.794 180C253.459 180.246 254.124 180.491 254.789 180.737C254.789 181.998 254.789 183.26 254.542 185.154Z" fill="#0B0E24"/>
<path d="M193.228 224.786C188.893 224.874 185.343 225.206 181.877 224.811C177.738 224.34 176.467 221.942 178.136 218.071C179.259 215.465 181.262 213.216 182.273 210.581C184.417 204.989 186.725 199.353 187.828 193.523C188.312 190.963 186.774 187.073 184.791 185.237C181.988 182.641 178.906 184.659 176.669 187.404C176.374 187.767 175.569 187.721 175 187.864C175.476 180.05 181.885 176.625 188.357 180.781C192.511 183.449 194.509 187.591 193.83 192.201C192.962 198.098 191.241 203.894 189.575 209.644C188.805 212.3 187.293 214.744 185.668 218.256C190.753 218.713 195.146 219.108 199.538 219.502C199.692 220.259 199.846 221.016 200 221.773C198.017 222.751 196.034 223.73 193.228 224.786Z" fill="#0B0E24"/>
<path d="M211 217.66C211.707 202.993 212.415 189.115 213.186 174C214.948 175.548 216.616 176.276 216.765 177.254C219.106 192.624 217.658 207.86 216.203 222.88C211.333 223.597 211.181 221.009 211 217.66Z" fill="#0B0E24"/>
<path d="M230.643 210C229.848 209.267 229.424 208.402 229 207.537C229.666 207.358 230.333 207.179 230.999 207C231.004 207.956 231.009 208.912 230.643 210Z" fill="#252526"/>
<path d="M475.985 159.681C470.907 160.884 471.321 164.072 471.877 167.297C474.006 179.656 475.812 192.082 478.378 204.35C481.201 217.844 484.229 231.338 488.132 244.549C490.595 252.884 494.826 260.7 498.44 269.161C491.23 279.475 480.406 282.223 469.993 274.803C462.059 269.149 454.078 267.883 445.086 270.913C443.898 271.313 442.654 271.566 441.42 271.805C427.93 274.41 420.647 267.606 422.92 254.024C423.895 248.197 425.609 242.422 427.619 236.85C433.85 219.577 432.057 203.58 420.818 188.83C419.486 187.083 418.258 185.257 417.005 183.451C410.139 173.564 410.253 165.63 417.866 156.071C420.982 152.159 424.856 148.857 428.172 145.091C432.935 139.679 437.926 134.393 442.062 128.523C449.717 117.661 453.332 105.662 451.506 92.0975C450.001 80.9151 449.893 69.7328 451.68 58.3801C455.311 35.3126 476.547 17.8849 496.713 14.4056C502.23 13.4537 508.545 15.0421 514.074 16.7875C519.693 18.5616 524.862 21.8455 530.107 24.6892C537.746 28.83 545.264 28.4919 552.539 24.1334C558.734 20.4218 564.724 16.3631 570.732 12.3488C577.784 7.63635 585.498 5.42849 593.954 6.12643C605.618 7.08936 614.092 12.6411 618.58 23.6656C624.212 37.4983 626.378 52.0083 627.212 66.813C627.706 75.5745 628.42 84.3303 629.302 93.062C630.7 106.901 637.996 116.294 651.244 120.879C655.1 122.214 659.095 123.152 662.959 124.469C667.113 125.884 671.416 127.105 675.253 129.158C686.342 135.088 686.943 144.798 676.738 151.924C673.149 154.431 669.146 156.357 665.294 158.48C661.442 160.603 657.414 162.434 653.687 164.752C637.809 174.625 636.872 187.76 651.187 199.628C655.781 203.436 660.493 207.125 665.354 210.585C676.373 218.425 671.966 233.298 661.023 236.667C652.379 239.329 643.258 240.471 634.325 242.165C631.244 242.749 628.071 242.835 624.977 243.367C614.09 245.238 605.695 250.676 600.626 260.691C597.808 266.259 593.675 270.437 587.665 272.339C575.73 276.115 567.073 269.022 564.092 258.324C563.594 256.54 564.662 254.089 565.539 252.191C579.275 222.458 588.596 191.226 597.173 159.745C597.851 157.253 597.802 154.564 598.278 150.285C586.745 156.719 581.326 149.836 575.423 143.565C567.638 135.296 563.771 124.966 560.101 114.674C556.846 105.547 554.743 96.0076 552.239 86.6217C550.802 81.2345 550.898 81.209 545.712 77.1381C544.613 80.6804 543.433 83.7578 542.708 86.9386C538.06 107.35 526.411 124.143 514.428 140.642C505.28 153.238 491.414 157.441 475.985 159.681Z" fill="#FCFCFC"/>
<path d="M530.877 274.259C517.421 276.965 507.885 272.169 501.533 261.306C498.389 255.927 495.283 250.181 493.873 244.2C488.266 220.409 483.302 196.466 478.21 172.556C477.774 170.51 478.152 168.292 478.152 165.736C480.666 165.16 483.054 164.508 485.482 164.074C503.413 160.873 516.454 150.756 525.589 135.447C533.114 122.837 540.235 109.988 547.675 97C548.792 100.611 549.945 104.658 551.293 108.638C556.229 123.204 560.907 137.879 571.983 149.39C576.852 154.45 581.842 159.077 590 159.777C589.634 162.435 589.589 164.847 588.949 167.09C581.635 192.735 573.479 218.086 563.24 242.761C557.023 257.744 547.493 269.015 530.877 274.259ZM541.595 238.334C541.428 236.535 541.262 234.736 541.095 232.937C540.344 232.771 539.593 232.604 538.842 232.438C536.739 236.073 534.743 239.775 532.505 243.325C529.765 247.67 526.482 251.854 520.806 251.671C515.386 251.497 514.31 246.46 512.498 242.539C511.407 240.178 511.073 237.027 505.991 237.719C507.19 241.7 507.872 245.34 509.351 248.625C513.834 258.588 522.36 260.966 530.618 253.791C534.945 250.033 537.614 244.377 541.595 238.334ZM550.893 189.334C560.468 184.574 565.549 177.784 566.726 167.021C564.385 168.395 562.338 169.022 561.2 170.397C559.424 172.543 558.44 175.321 556.809 177.611C550.033 187.12 542.194 186.757 536.255 176.757C534.955 174.568 533.642 172.385 531.698 169.134C528.793 182.273 536.465 190.172 550.893 189.334ZM506.667 183.864C502.555 185.027 500.306 182.29 497.866 179.79C496.097 177.978 494.133 176.355 491.234 173.716C491.738 186.319 501.311 193.075 510.161 188.999C517.709 185.522 522.529 176.976 522.087 167.795C518.135 166.587 517.643 169.809 516.147 172.125C513.662 175.975 510.769 179.563 506.667 183.864Z" fill="#F8F8F8"/>
<path d="M151.926 422.149C142.251 392.505 132.704 363.626 123.23 334.722C121.686 330.01 120.465 325.193 119 320.098C209.363 313.45 299.052 316.148 388.635 313C390.788 329.864 393.146 345.921 394.826 362.049C397.653 389.183 399.825 416.385 402.704 443.513C404.756 462.846 407.52 482.104 409.945 501.398C410.06 502.314 409.96 503.257 409.96 505.001C407.739 505.468 405.432 506.164 403.078 506.416C370.251 509.92 337.387 510.827 304.339 510.189C273.606 509.596 242.821 511.564 212.061 512.488C199.234 512.874 186.414 513.475 173.044 514C169.19 508.014 168.29 500.834 166.831 493.863C161.882 470.217 156.991 446.559 151.926 422.149ZM241.424 361.769C220.73 362.711 200.018 363.371 179.351 364.722C169.972 365.335 168.988 367.397 171.035 376.149C173.177 385.31 175.738 394.402 177.327 403.659C181.501 427.973 190.52 450.726 199.204 473.596C202.471 482.2 203.727 482.732 212.53 481.073C216.843 480.26 221.123 478.968 225.47 478.68C247.705 477.207 269.945 475.714 292.207 474.766C313.54 473.858 334.907 473.777 356.247 473C367.179 472.602 368.872 470.764 368.587 459.984C368.121 442.42 367.448 424.856 366.473 407.314C365.795 395.112 364.849 382.898 363.297 370.783C362.146 361.806 360.533 360.952 351.65 361.013C315.537 361.259 279.424 361.516 241.424 361.769Z" fill="#F9F9F9"/>
<path d="M438.355 501.676C471.862 500.102 504.474 498.564 537.088 497.055C539.563 496.941 542.048 497.04 545.258 497.04C545.487 499.405 545.704 501.634 546 504.684C532.239 505.551 519.131 506.411 506.02 507.193C489.412 508.184 472.811 509.502 456.187 509.936C444.298 510.247 432.376 509.335 420.469 508.977C416.797 508.866 416.655 506.657 417.29 503.072C423.968 502.624 430.715 502.171 438.355 501.676Z" fill="#F3F3F3"/>
<path d="M653.874 359.947C654.571 378.867 652.355 396.548 647.672 413.901C643.755 428.418 636.979 441.317 625.354 451.216C615.746 459.397 604.809 464.344 592.014 463.981C588.473 463.881 584.965 462.655 581.574 461.973C584.289 428.706 580.779 420.888 560 413.665C560.61 412.635 560.943 411.41 561.74 410.824C580.666 396.905 590.949 376.919 599.989 356.056C602.853 349.447 605.423 342.699 608.526 336.207C612.427 328.046 618.463 321.816 626.772 318.033C635.965 313.846 642.398 316.069 646.782 325.232C651.879 335.887 653.528 347.337 653.874 359.947Z" fill="#465BEE"/>
<path d="M518.405 445.313C514.759 442.999 513.529 445.438 512.047 447.506C509.67 450.823 507.515 454.374 504.714 457.297C501.149 461.015 495.609 461.528 491.705 459.054C487.507 456.394 487.617 452.418 488.483 448.164C491.222 434.695 499.681 426.336 512.579 423.101C527.657 419.32 543.199 419.659 558.588 420.679C566.77 421.221 572.58 425.985 575.034 434.152C577.749 443.191 578.018 452.056 573.496 460.734C570.2 467.06 564.913 470.708 558.279 472.483C549.79 474.755 543.205 469.313 543.693 460.488C543.848 457.686 544.895 454.931 545.019 452.131C545.104 450.211 544.885 447.082 543.783 446.531C540.602 444.941 539.754 448.114 538.603 450.296C537.286 452.794 536.395 455.855 534.381 457.57C531.421 460.09 527.834 462.477 524.138 463.379C519.622 464.481 517.006 461.613 517.28 456.859C517.493 453.16 518.298 449.495 518.405 445.313Z" fill="#465BEE"/>
<path d="M98 239.971C94.6107 242.174 91.6588 243.815 87.7265 246C86.6377 240.786 85.8204 236.873 85 232.945C95.5168 230.793 97.8151 231.987 98 239.971Z" fill="#465BEE"/>
<path d="M541.961 238.645C538.195 244.171 535.478 249.936 531.072 253.767C522.664 261.081 513.985 258.657 509.42 248.5C507.915 245.152 507.22 241.442 506 237.383C511.174 236.678 511.513 239.89 512.625 242.297C514.469 246.294 515.565 251.428 521.083 251.606C526.862 251.792 530.204 247.527 532.993 243.098C535.272 239.479 537.304 235.705 539.445 232C540.21 232.17 540.974 232.339 541.739 232.509C541.908 234.342 542.078 236.176 541.961 238.645Z" fill="#252526"/>
<path d="M550.303 188.959C536.432 189.639 528.682 181.914 531.617 169.066C533.581 172.245 534.906 174.379 536.22 176.52C542.219 186.299 550.138 186.654 556.983 177.355C558.631 175.116 559.624 172.399 561.419 170.301C562.568 168.957 564.635 168.344 567 167C565.812 177.524 560.679 184.164 550.303 188.959Z" fill="#252526"/>
<path d="M507.663 183.277C510.978 179.216 513.788 175.572 516.202 171.663C517.655 169.312 518.133 166.04 521.973 167.266C522.402 176.589 517.72 185.266 510.387 188.796C501.789 192.935 492.489 186.074 492 173.279C494.817 175.958 496.724 177.606 498.443 179.446C500.813 181.984 502.998 184.763 507.663 183.277Z" fill="#252526"/>
<path d="M242.415 361.76C279.57 361.507 315.78 361.25 351.99 361.003C360.896 360.942 362.513 361.797 363.667 370.788C365.224 382.922 366.172 395.156 366.852 407.376C367.83 424.945 368.505 442.536 368.971 460.127C369.258 470.924 367.559 472.765 356.599 473.164C335.202 473.942 313.777 474.023 292.387 474.933C270.067 475.882 247.767 477.378 225.473 478.852C221.114 479.141 216.823 480.435 212.498 481.25C203.671 482.911 202.412 482.378 199.137 473.761C190.429 450.856 181.386 428.067 177.201 403.716C175.607 394.444 173.04 385.338 170.892 376.162C168.84 367.397 169.826 365.332 179.23 364.718C199.953 363.365 220.72 362.704 242.415 361.76ZM228.493 471.863C240.434 471.09 252.364 470.006 264.318 469.606C291.394 468.699 318.483 468.188 345.562 467.374C351.114 467.208 356.646 466.419 363.378 465.81C360.011 432.744 361.707 400.365 357.102 367.653C352.851 367.653 349.467 367.615 346.084 367.66C334.744 367.813 323.405 368.001 312.066 368.165C269.866 368.775 227.667 369.359 185.468 370.035C182.56 370.082 179.663 370.806 176.69 371.225C183.964 407.571 191.586 442.491 207.364 475.562C213.933 474.383 220.385 473.226 228.493 471.863Z" fill="#232323"/>
<path d="M227.787 471.435C220.534 472.684 214.106 473.832 207.561 475C191.841 442.212 184.247 407.591 177 371.557C179.962 371.141 182.848 370.423 185.746 370.377C227.789 369.706 269.833 369.127 311.877 368.522C323.174 368.36 334.472 368.173 345.77 368.022C349.141 367.977 352.512 368.015 356.747 368.015C361.335 400.447 359.646 432.549 363 465.331C356.293 465.936 350.781 466.717 345.25 466.883C318.27 467.69 291.281 468.196 264.305 469.095C252.395 469.492 240.509 470.566 227.787 471.435Z" fill="#FCFCFC"/>
</svg>
